<?xml version="1.0" encoding="utf-8"?>
<!-- Generator: Adobe Illustrator 18.1.1, SVG Export Plug-In . SVG Version: 6.00 Build 0)  -->
<svg version="1.1" xmlns="http://www.w3.org/2000/svg" xmlns:xlink="http://www.w3.org/1999/xlink" x="0px" y="0px"
	 viewBox="0 0 1280 578" enable-background="new 0 0 1280 578" xml:space="preserve">
<g id="background_day">
	<radialGradient id="SVGID_1_" cx="640" cy="289" r="496.5486" gradientUnits="userSpaceOnUse">
		<stop  offset="0" style="stop-color:#F38D68"/>
		<stop  offset="0.1712" style="stop-color:#F3AC67"/>
		<stop  offset="0.3645" style="stop-color:#FDC74E"/>
		<stop  offset="1" style="stop-color:#DAEDF2"/>
	</radialGradient>
	<rect fill="url(#SVGID_1_)" width="1280" height="578"/>
</g>
<g id="background_night">
	<rect fill="#00333F" width="1280" height="578"/>
</g>
<g id="waves">
	<g>
		<defs>
			<rect id="SVGID_2_" width="1280" height="578"/>
		</defs>
		<clipPath id="SVGID_3_">
			<use xlink:href="#SVGID_2_"  overflow="visible"/>
		</clipPath>
		<g clip-path="url(#SVGID_3_)">
			<path fill="#166E91" d="M-6,449c15.7-14.7,44.6,2.7,84,11c63.7,13.4,91.3-10.3,203-31c35.1-6.5,87-14.3,152-17
				c35.1-6,84.4-10.6,142-3c68.5,9.1,97.6,28.8,172,42c21.2,3.8,56.6,8.8,147,8c254.2-2.4,338.4-48,380,5c30.1,38.4,28,109.2,7,121
				c-8.6,4.8-16.9-2.1-47-4c-24.6-1.5-41.6,1.7-52,3c-62.4,8.1-274.1-1-495,2c-112.4,1.6-138.6,5-214,2c-36.5-1.5-78.2-4.2-139-4
				c-16.1,0.1-39.7,0.3-77,0c-42.9-0.4-43-1-66-1c-38.1,0.1-71.8,1.9-110,4c-63.9,3.5-79.8,6.1-90-6c-6-7.1-4.4-12.7-4-60
				C-12.5,463.1-12.9,455.4-6,449z"/>
			<g>
				<path fill="#166E91" d="M347.4,163.6c21.6,24.4-24.3,60.6-13.3,133.5C345,369.5,405.5,435,470.2,458.3
					c9.8,3.5,34.4,7.5,83.7,15.4c25.1,4,56.6,8.9,119.5,15.9c107.6,12.1,129.5,12.7,130,17.9c1.1,11.9-105,29.4-174,40.8
					c-192.1,31.7-273,29.9-340,21.2c-53.6-7-80.9-10.8-105.4-28.1c-87.9-62.2-117-227.8-36.7-319.7
					C206,154.4,319.1,131.7,347.4,163.6z"/>
				<path fill="#338CA8" d="M219.8,201.3c4.8,0.5-25.7,97.4,16.2,190.8c34,75.6,101,116.6,98,119.9c-2,2.3-33.4-17.4-60.9-47.9
					c-56.1-62.2-64.8-134.6-66.7-158.2C202,248.9,216.4,201,219.8,201.3z"/>
				<path fill="#A9D5E0" d="M252.2,211.5c-2.6,0.1,1.1,68.4,13.3,111.4c1.6,5.6,5.5,18.3,16.2,30.4c9.9,11.1,22.3,18.1,23.8,16.6
					c1.7-1.7-12.2-13-24.7-36.8c-1.6-3-5.7-11.1-9.5-22.1c-5-14.5-6.8-26-7.6-31.3C256.6,234.2,253.1,211.5,252.2,211.5z"/>
				<path fill="#338CA8" d="M226.3,202.3c5.8,0.3-8.5,66.9,22.1,133.3c24.2,52.5,67.3,84.6,95.2,105.5
					c57.2,42.7,105.8,54.8,102.8,67.1c-2.2,8.7-28.8,10.5-47.9,7.7c-31.3-4.7-53.1-22.9-66-36.3c-64.6-66.7-116.5-120.3-119.1-207.6
					C212.2,234.1,222.2,202.1,226.3,202.3z"/>
				<path fill="#338CA8" d="M321.8,190.3c-6.3,18.6-14.4,50.7-10.5,90.1c7.8,79.1,60.9,128.8,81.9,148.6c0,0,31.5,29.8,83.6,54.7
					c8,3.8,15.7,7.4,26.8,9.6c18.8,3.7,32.6,0.3,33.2,2.9c0.5,2.3-9.9,7-19.8,9.6c-17.2,4.4-31.9,2-37.1,1
					c-42.7-8.3-80.6-43.2-98.2-59.5c-4.4-4.1-19.2-17.9-36.2-38.4c-11.7-14.1-22.9-27.6-32.2-45.1c-7.8-14.6-18.9-40.5-20.9-77.7
					c-2-10.3-5.5-35.7,6.7-63.3C305.8,207.5,315.1,196.8,321.8,190.3z"/>
				<path fill="#DAEDF2" d="M370.2,569.5c-0.1,1-155.6,26.3-239.2-62.3c-58.7-62.2-53.2-149.9-52.4-160.1
					c6.2-79.2,54.1-126.8,83.8-156.3c15.6-15.5,55.7-50.3,111.4-58.5c10-1.5,24.8-3.6,44.2-1.4c33.9,3.9,40.1,16.6,73,19
					c23.6,1.7,42.3-3.2,43.7,1.6c0.8,2.8-4.6,7.5-9.5,9.6c-6.5,2.8-13.1,1.4-13.1,1.9c-0.1,0.9,23.2,0.6,27.4,10.6
					c1.5,3.7-0.9,5.2,0.6,11.4c2.1,8.9,9.3,11.6,8,14.5c-1.2,2.8-9.2,3.7-14,0.5c-3.5-2.4-4.1-6.2-7.5-6.4c-1.5-0.1-2.9,0.5-5.7,0
					c-0.7-0.1-1.5-0.4-2.4-0.8c-7.5-3.5-7.9-11.9-12.4-11.5c-3.8,0.4-8.6,5.8-8.6,5.8c0,0,1,8-1.9,10.5c-3.7,3.2-11.2-4.8-17.1-1.9
					c-5.5,2.7-2.6,11.4-7.6,14.4c-8,4.9-30.2-8.9-30.5-22.1c-0.1-5.3,3.3-9.1,1-12.5c-2-2.9-7.2-3.8-10.5-1.9
					c-5.9,3.4-3.9,14.8-3.8,15.3c2,10.5,9.9,11.4,11.4,20.1c1.7,10.1-6.7,21.7-11.4,21.1c-4.1-0.5-6.4-10.3-7.6-15.3
					c-2.6-10.9,0-14.7-3.8-19.2c-3.6-4.3-9.9-5.4-14.3-4.8c-3.9,0.5-8.7,2.7-8.6,4.8c0.1,2.6,7.7,1.9,11.4,7.7
					c1.5,2.3,1.6,4.7,1.9,9.6c0.2,4.2,0.3,14-1.9,14.4c-1.8,0.3-3.3-6.3-10.5-16.3c-3.5-4.9-5.4-7.4-7.6-7.7
					c-6.9-0.9-17.9,12.9-16.2,24.9c1.2,8.4,8.4,15.4,13.3,20.1c6.2,6,10.4,7.5,10.5,11.5c0.1,4.9-6.1,10.5-10.5,9.6
					c-4.2-0.9-4.8-7.3-8.6-15.3c0,0-7.1-15-22.8-24.9c-15.7-9.9-38-11-40.9-4.8c-2.2,4.7,5.6,15.5,15.2,19.2
					c8.4,3.2,13-0.9,18.1,2.9c8.5,6.3,5.7,25.4,2.9,25.9c-2.2,0.4-2.7-11.2-11.4-15.3c-6-2.9-9.6,0.9-16.2-1
					c-10.5-2.9-11.4-15.1-18.1-20.1c-13.3-10-50.1,9-67.6,27.8c-49.1,52.6-29.9,191.8,47.9,259.8
					C258.7,590.7,370.3,568.7,370.2,569.5z"/>
				<path fill="#DAEDF2" d="M412.1,219.6c-4.8,1.8-7.8,12.5-2.9,17.3c5.1,4.9,15.6,1.1,17.1-3.8
					C428.2,227.1,417.9,217.4,412.1,219.6z"/>
				<path fill="#DAEDF2" d="M452.1,220.5c-3.5-0.7-7.9,7-9.5,12.5c-0.7,2.4-2.6,8.4,0,10.5c2.7,2.2,9.4-0.3,12.4-4.8
					C459.4,232.1,455.9,221.2,452.1,220.5z"/>
				<path fill="#DAEDF2" d="M350.2,233.9c-3,0.1-7.9,8.9-3.8,14.4c2.4,3.2,7.6,4.7,9.5,2.9C359.4,248,354,233.8,350.2,233.9z"/>
				<path fill="#DAEDF2" d="M271.2,270.4c-5.3,0.2-11.4,18.9-6.7,23c2.8,2.4,10.2,0.2,13.3-4.8C282.6,281,275.3,270.3,271.2,270.4z"
					/>
				<path fill="#DAEDF2" d="M202.7,398.4c-18.3-35.1-25.2-68-29.5-88.4c-5.3-25.2-6-40.6-6.7-40.5c-1.3,0.1-1.4,54.3,15.2,104.1
					c8.1,24.2,19,47,19,47c4.7,9.7,9.3,18.3,13.3,25.8c8.7,16.1,11.6,20.3,20,35.9c12.3,22.9,9.7,20.8,14.3,27.6
					c16.1,24.1,39.2,36.8,40.3,35.7c0.9-0.9-12.1-10.4-25.1-31c-5.8-9.2-13.5-23.6-11.6-24.8c0.3-0.2,0.7,0,0.9,0.1
					c3,1.3,9.1,11.1,22.3,25c21.5,22.7,47.5,40.9,48,40.3c0.4-0.4-12.7-10.4-31-28.6c-20.2-20.1-30.3-33.8-39.4-46.2
					c-7.6-10.3-8.2-12.3-7.8-12.6c0.1-0.1,0.2-0.1,0.2-0.1c2.4,0.2,28,26,33.6,31.3c10.2,9.6,21.1,14.1,42.8,23
					c17.8,7.3,39.3,13.6,40,12c1-2.3-37.7-12.6-77.1-40.5C275.7,487,232.4,455.3,202.7,398.4z"/>
			</g>
			<g>
				<path fill="#166E91" d="M687.2,265.4c-0.7,18.2-78.7,12.2-92.1,53.4c-9.1,27.9,16.5,61.9,26.7,75.5c38.2,50.8,84,51.9,83.5,68.1
					c-0.8,23.1-95.3,59-188.5,34.1c-105.5-28.2-181.2-127.4-168.7-151.9c5.4-10.7,24-0.2,57.7-15.7c28.2-13,30.5-27.6,62-53.4
					c2.4-1.9,44.4-36.5,99-44.2C627.1,222.8,687.8,249.2,687.2,265.4z"/>
				<path fill="#DAEDF2" d="M578.8,247c-2.1-1.2-15.5,15.8-25,38.7c-4.1,10-24.8,60.2-6.9,103.1c21.8,52.3,90.9,70.4,92.1,68.1
					c0.4-0.7-7.2-6.3-22.4-17.5c-25.1-18.6-30.8-19.9-38.7-27.6c-17.5-17-21.3-41.2-23.2-53.4C545.4,299.9,582.4,249.1,578.8,247z"
					/>
				<path fill="#A9D5E0" d="M760.4,261.6c0.4,1.3,1.3,4.7,0,8.3c-1.5,4.3-6,8.2-9.5,7.4c-4-0.9-4.6-7.6-6.9-7.4
					c-1.9,0.2-2,5.1-5.2,12c-2.1,4.6-4.9,10.5-9.5,11.1c-3.4,0.4-7.1-2.2-8.6-5.5c-2.8-6,2.1-13,0.9-13.8
					c-1.4-0.9-9.8,6.3-10.3,15.7c-0.3,5.7,2.5,8.1,0.9,11.1c-2.4,4.3-11.7,5-14.6,0.9c-0.9-1.2-1.3-3,0.9-12c3-12.8,5.7-17,4.3-18.4
					c-1.9-1.9-10,2.9-15.5,9.2c-8,9.1-6.6,21.1-9.5,21.2c-3.2,0.1-3.8-14.2-10.3-15.7c-3.7-0.8-7.7,2.8-8.6,3.7
					c-2.4,2.2-2.7,4-5.2,8.3c-2.6,4.5-4.9,8.6-8.6,11.1c-5.7,3.8-13.8,3.3-14.6,0.9c-0.7-2,3.8-4.3,11.2-12.9
					c6.3-7.3,9.4-11,8.6-14.7c-1.2-5.7-11-10.1-17.2-7.4c-3.6,1.6-3.5,4.4-10.3,12c-4.2,4.6-7.5,8.3-9.5,7.4
					c-2.4-1.1-0.1-7.5-2.6-17.5c-1.1-4.4-3-12-6.9-12.9c-5.7-1.3-9.3,13.5-18.1,13.8c-5.5,0.2-10.6-5.5-12.9-10.1
					c-4.3-8.7,0-16.9-2.6-18.4c-2.3-1.3-6.1,8.1-17,15.8c-4.7,3.3-7.3,5.1-10.5,4.5c-6-1.2-5.4-10.5-13.8-15.7
					c-4.6-2.8-9.1-2.8-11.2-2.8c-7.4,0.1-14.1,4-13.8,5.5c0.4,2,12-2.1,18.9,4.6c2.8,2.7,4.7,7.3,3.4,9.2c-1,1.5-3.8,0.8-14.6-1.8
					c-10-2.4-15-3.6-17.2-1.7c-2.1,1.9-2.9,5.8-1.7,8.1c1.2,2.2,3.9,1.7,10.3,3.7c6.8,2.1,10.2,3.2,10.3,4.6
					c0.1,2.4-7.5,5.8-14.6,5.5c-1.8-0.1-6.6-0.3-11.2-3.7c-4.7-3.5-5.6-7.8-6.9-7.4c-1.8,0.6-3,10.7,1.7,16.6
					c7,8.7,23.4,3.9,24.1,3.7c7.5-2.3,8.8-5.9,16.4-6.4c3-0.2,9-0.7,12.9,3.7c3,3.3,4.7,9.3,2.6,12c-2,2.5-6,0.1-16.4,0
					c-5.9-0.1-13.7-0.2-14.6,2.8c-0.9,2.8,4.4,8.6,10.3,10.1c4.8,1.2,6.7-1.2,12.9,0c3.4,0.7,8.6,2.5,8.6,4.6c0,2.7-9,4.9-14.6,5.5
					c-5.2,0.6-9.3,0-15.5-0.9c-8.5-1.2-10.3-4.4-13.8-2.8c-4.6,2.1-6.5,8.8-6.9,10.1c-1.5,5.3,0,7.8-1.7,9.2
					c-2.8,2.3-11.3-0.9-12.9-6.4c-1.7-5.9,5.4-10.4,3.4-15.7c-1.6-4.2-8-6.7-11.2-4.6c-4.1,2.7-2,12.6-3.4,12.9
					c-1.9,0.3-3.7-18-10.3-19.3c-2.3-0.5-3.6,1.5-10.3,6.4c-6.4,4.7-12,7.9-14.6,9.2c-4.5,2.3-11.5,4.5-21.5,3.7
					c-45.8,11-56.5,12.4-56.8,11.2c-0.6-2.3,43.5-6.8,86.1-38.9c37.2-28,35.6-48.9,73.2-70c10.3-5.8,34-19.1,65.4-19.3
					c47.1-0.3,61.5,30.2,101.6,20.3c19.4-4.8,25.7-14,43-11.1C743.7,228.2,758,253.1,760.4,261.6z"/>
				<path fill="#DAEDF2" d="M328.3,341.9c-0.4-4.2,53.1,0,97.2-36.8c16.4-13.7,10.9-15.9,42.2-47.9c35-35.9,53.9-45.4,63.7-49.7
					c16.9-7.4,34.9-15.2,51.6-7.4c13.3,6.3,15.5,17.6,27.5,18.4c12.3,0.9,14.9-10.5,32.7-14.7c12.3-2.9,29.5-1.9,34.4,7.4
					c4.8,9.1-4.1,22.5-1.7,23.9c3,1.9,12.1-22.3,31-27.6c13.8-3.9,27,3.8,36.1,9.2c7.5,4.4,21.9,12.9,20.7,22.1
					c-1,7.3-11.6,13.9-20.7,12.9c-11.8-1.3-16.2-14.9-22.4-12.9c-7.1,2.3-6.5,22-10.3,22.1c-3.3,0.1-5-14.6-9.5-14.7
					c-3.4-0.1-3.9,8.3-9.5,10.1c-5.8,1.9-9.3-6-16.4-4.6c-3.2,0.7-3,2.4-11.2,8.3c-5.9,4.2-8.8,6.3-11.2,5.5
					c-3.9-1.3-2.7-7.5-6.9-13.8c-5.2-8-15.8-11.7-24.1-11.1c-11.4,0.9-13.8,9.8-22.4,8.3c-6.4-1.1-7.1-6.4-15.5-12.9
					c-11.3-8.8-23.7-9.8-27.5-10.1c-16-1.3-28.2,5.5-36.1,10.1c-11,6.4-16.6,12.8-25.8,22.1c0,0-13,13.1-42.2,37.8
					c-24.9,21.1-43,36.3-69.7,44.2C354.3,348.3,328.6,344.8,328.3,341.9z"/>
				<path fill="#A9D5E0" d="M570.2,484.6c-1.4,2.3-18.6-6.5-35.3-17.5c-27.4-18.1-27-24.9-49.9-38.7c-19.2-11.5-25.4-10.4-33.6-21.2
					c-12.6-16.6-12.1-38.1-10.3-38.7c1.8-0.6,5,20.2,22.4,35.9c7.7,7,17.7,12.4,19.8,10.1c2-2.2-5.7-10.2-10.3-23.9
					c-7.6-22.4-1.6-45.1,0-45.1c1.2,0-0.4,11.8,4.3,30.4c5.2,20.5,13.8,32.5,21.5,43.3c7.5,10.5,9.5,10.5,10.3,10.1
					c3.1-1.4-2.3-14.3,0-29.5c3.2-20.8,19.6-35.4,21.5-34.1c2.1,1.5-16.1,20-15.5,44.2C516.2,451.8,572.8,480.4,570.2,484.6z"/>
				<path fill="#A9D5E0" d="M604.6,271.9c-0.5-0.4-20.6,15.7-27.5,44.2c-8.6,35,7,71.1,26.7,90.2c9.2,8.9,21.2,16.2,22.4,14.7
					c0.8-1-4-6.6-15.5-21.2c-11.1-14.2-16.7-21.3-18.9-24.9c-9.6-15.4-12.9-34.3-12-48.8C581.6,294,605.2,272.3,604.6,271.9z"/>
				<path fill="#A9D5E0" d="M671.7,316.8c-4-0.7-9.5,1.3-10.3,5.5c-0.8,3.9,2.9,7.8,6,9.2c4.8,2.2,11.7,0.5,12.9-3.7
					C681.6,323.7,677,317.7,671.7,316.8z"/>
				<path fill="#A9D5E0" d="M745.7,294.7c-2.7,1.1-2.6,7-2.6,7.4c0.1,3.9,2.1,9.8,6,10.1c3.1,0.3,6.3-3.1,6.9-6.4
					C757.1,299.6,749.2,293.3,745.7,294.7z"/>
				<path fill="#DAEDF2" d="M774.2,243.2c-1.8,2.2-3.1,7.4-2.2,10.9c2.1,8.6,16.3,7.2,17,2C789.8,251.2,779.2,237.3,774.2,243.2z"/>
				<path fill="#DAEDF2" d="M647.3,323.1c-2.6,0.8-4.5,5.6-3.1,8.7c2,4.7,10.6,4.1,11.9,1.3C657.5,330.1,651.3,321.8,647.3,323.1z"
					/>
				<path fill="#DAEDF2" d="M732.1,305.7c-2.7,0.5-5.2,4.9-3.7,8c1.8,3.9,9.2,3.5,10.6,1.2C740.6,312.3,735.9,305.1,732.1,305.7z"/>
				<path fill="#DAEDF2" d="M741.6,319.6c-1.8,2.4-3,7.9-2.1,11.8c2,9.2,15.8,7.7,16.5,2.1C756.8,328.2,746.4,313.1,741.6,319.6z"/>
			</g>
			<g>
				<path fill="#166E91" d="M1116.6,504.3c28.7,33,49.7,38,48.4,46.7c-4.3,27.5-222.4,22.3-343.3,20.3
					c-326.8-5.4-471.8,3.9-472.4-6.1c-0.7-10.8,190.1,17.5,407.9-58.8c18.6-6.5,89.5-18.5,231.3-42.6c21.7-3.7,83.1-13.4,110.7,17.1
					C1104.6,486.8,1105.7,491.7,1116.6,504.3z"/>
				<path fill="#338CA8" d="M777.2,491.9c-21.8,1.6-38.2,5.2-38.2,5.2c-31.4,7.1-47.4,19.1-104.9,27.3
					c-61.2,8.7-119.4,5.9-145.2,4.1c-62.1-4.5-90.3-9.6-91-6.1c-1,4.8,50.1,24.8,110.1,33.7c17.5,2.6,32.1,3.7,178,2
					c44.3-0.5,55.4-0.8,65-1c38-1,82.5-2.2,123-6c25-2.4,143.7-13.6,144-30C1018.3,500.6,835,487.5,777.2,491.9z"/>
				<path fill="#A9D5E0" d="M566.8,528.7c-0.4-5.3,43-9.3,121-29.6c28.4-7.4,61.3-17.5,98.3-31.8c73.9-28.5,114.7-54.8,178.5-42.9
					c42.3,7.9,94.5,32.4,94.4,58.3c-0.1,20.7-31.9,39.3-56.1,46c-36.4,10.1-62.8,0.4-96-5.7c-55.5-10.2-59.6,5.4-170,12
					C652.7,540,567.3,536.1,566.8,528.7z"/>
				<path fill="#DAEDF2" d="M1026.2,457.2c-5.1,6.9-18.9,2.1-21.7,8.1c-2.6,5.6,6.6,16.6,17.3,22.3c13.1,7.1,25.3,4.7,26,8.1
					c0.9,4.7-22.1,6.7-28.2,20.3c-4.9,11.1,1.5,29.5,17.3,36.5c12.9,5.7,28.9,2.3,36.8-6.1c12.1-12.7,3-34,10.8-36.5
					c6.4-2.1,19.5,10.1,19.5,10.1c0,0-1.9,17.5,4.3,26.4c9.3,13.2,38.3,9.4,47.7,8.1c16.7-2.2,34.3-4.5,43.3-18.3
					c11.8-18,2.7-46.4-10.8-50.7c-11.5-3.7-24.1,10.7-30.3,6.1c-5.8-4.3,4.6-17.1-2.2-28.4c-4.7-7.9-15.1-10.5-30.3-14.2
					c-20.9-5.1-24.6-0.7-34.7-6.1c-14.3-7.7-10.7-18.8-23.8-26.4c-16-9.1-42.3-4.7-47.7,6.1C1014.2,433.9,1032.7,448.2,1026.2,457.2
					z"/>
				<path fill="#DAEDF2" d="M679.5,476.9c-0.7-9.4,61.5-5.4,149.7-42.4c24.6-10.3,49.3-17.9,98.5-32.9c14.6-4.5,46.3-13.9,54.1-3.7
					c4.9,6.4-2.1,17.6,2.4,20.2c4.5,2.6,11.9-8.7,28.9-13.3c5.1-1.4,17.5-4.7,28.5,1.1c11.1,5.9,18.4,19.9,14.4,29.1
					c-5,11.6-27,13.2-26.5,15.1c0.6,2.5,37.1-8.4,46.2,3.3c6.6,8.5-4,25.6-9,33.6c-4,6.4-13.9,22.3-23.6,20.9
					c-9.7-1.4-11.7-19-17.5-18.6c-7.8,0.6-8.2,32.5-16.7,33.5c-8.3,1-15.2-28.9-26-28.4c-9.7,0.5-11.3,25-23.3,26.4
					c-8.6,1.1-11-11.2-26.1-17.6c-17.9-7.6-26.5,3.5-45.9-1.2c-23-5.6-22.3-23.9-42.9-30.2c-19.6-6-32.7,6.6-59.3,14.5
					C734.9,500.9,680.2,485.6,679.5,476.9z"/>
				<path fill="#DAEDF2" d="M826.3,460.2c-14.2-3.5-14.8-15.6-27.6-18.4c-7-1.5-9.3,1.5-24.7,5.5c-17,4.4-21.9,2.8-37.1,5.5
					c-5.2,0.9-16.5,3.3-42.8,14.7c-17.7,7.7-76.3,33.2-73.3,42.4c2,6.1,30.4,3.1,46.6,0c29.9-5.7,31-14.3,50.4-14.7
					c28-0.6,46.1,16.7,55.2,8.3c5.5-5.1,3.3-15.8,7.6-16.6c4.3-0.7,8.6,9.3,11.4,8.3c2.9-1,1-12.8,1.9-12.9c1-0.1,1.2,16.7,8.6,19.3
					c4.8,1.7,12.5-2.5,13.3-7.4c1.2-6.8-11.1-14-10.5-14.7c0.6-0.7,11.2,8.4,26.7,12.9c2,0.6,14.2,4.2,16.2,0.9
					c2.2-3.6-11.1-11.1-9.5-20.3c1.2-6.8,9.6-9.5,8.6-12C846.1,458.4,836.8,462.8,826.3,460.2z"/>
			</g>
		</g>
		<path clip-path="url(#SVGID_3_)" fill="#DAEDF2" d="M1174,466.7c-0.3-0.7,6.8-7.4,17.2-9.2c5.1-0.9,10.2,0.1,20.2,2
			c14.2,2.7,13.8,4.1,21,4.3c3.4,0.1,11,0.3,20-2.7c3.8-1.3,6.6-2.7,6.7-2.5c0.2,0.4-5.9,5.5-14.3,7.9c-9.9,2.9-19.2,0.9-26.4-0.6
			c-0.8-0.2-2.7-0.6-6.5-1.5c-12.6-3-13-3.3-14.9-3.6C1184.6,458.8,1174.4,467.5,1174,466.7z"/>
		<path clip-path="url(#SVGID_3_)" fill="#DAEDF2" d="M58.1,555.9c-0.4-0.7,8.4-7.4,21.3-9.2c6.2-0.9,12.5,0.1,24.9,2
			c17.5,2.7,17.1,4.1,25.9,4.3c4.2,0.1,13.6,0.3,24.7-2.7c4.8-1.3,8.1-2.7,8.3-2.5c0.2,0.4-7.3,5.5-17.6,7.9
			c-12.2,2.9-23.7,0.9-32.7-0.6c-1-0.2-3.3-0.6-8-1.5c-15.5-3-16-3.3-18.4-3.6C71.2,548,58.6,556.7,58.1,555.9z"/>
		<path clip-path="url(#SVGID_3_)" fill="#DAEDF2" d="M89.9,470.2c0.5,0.7-10,7.6-25.6,9.6c-7.5,1-15.2,0.2-30.2-1.5
			c-21.2-2.4-20.7-3.8-31.4-3.8c-5.1,0-16.5,0-29.8,3.2c-5.7,1.4-9.8,2.9-10,2.6c-0.3-0.4,8.8-5.6,21.2-8.3
			c14.7-3.1,28.6-1.4,39.5,0c1.2,0.1,4,0.6,9.7,1.4c18.8,2.7,19.5,3,22.3,3.2C74.3,478.4,89.3,469.4,89.9,470.2z"/>
	</g>
</g>
<g id="text">
	<g>
		<path fill="#DAEDF2" d="M500.3,543c-0.3,0.2-0.5,0.4-0.7,0.9c-0.3,0.5-0.6,0.9-1,1.4v7.8c0,1.6,0,2.1-0.1,2.5c0,0.2-0.1,0.2-0.3,0
			l-0.6-1.1c0.2-0.4,0.4-1.2,0.4-2.1v-6.3c-0.8,1-1.8,2-2.7,2.9l-0.2-0.2c3.4-3.7,4.4-6.1,4.2-7.2l0.2-0.1l0.8,1.2
			C500.4,542.8,500.4,542.9,500.3,543z M506.8,553.8l-2.7-4.6l-0.1,0v5c0,1.2,0,1.5-0.1,1.8c0,0.2-0.2,0.2-0.3,0l-0.6-1
			c0.3-0.4,0.4-1,0.4-1.9v-3.5c-1.1,1.6-2.8,3.4-4.5,4.5l-0.2-0.3c1.5-1.1,3.1-2.8,4-4.6c-1.2,0.1-2.6,0.3-2.8,0.4l-0.8-0.6l4.2-0.4
			c0-1.1,0-1.4-0.2-1.8l-1,0.1c0,0.4,0,0.6-0.1,0.7c-0.1,0.2-0.2,0.2-0.3,0l-0.5-0.8c0.2-0.3,0.2-0.6,0.2-1.3l0-1.4
			c0-0.4-0.1-0.9-0.3-1.7l0.2-0.1l0.7,1l3.4-0.5l0.5-0.6l0.7,0.7c0.1,0.1,0.1,0.1,0,0.2c-0.4,0.3-0.4,0.4-0.6,1l-0.3,1.5l0.4,0.5
			c0.1,0.1,0.1,0.2-0.1,0.2l-2.5,0.3l0.4,0.4c0.1,0.1,0.1,0.2,0.1,0.3c-0.1,0.2-0.2,0.6-0.2,1.2c1.6-0.2,2.8-0.4,3.2-0.7l0.7,0.6
			c0.2,0.2,0.2,0.2,0,0.2l-3.3,0.3l1.2,1.8c1.3,1.9,1.8,2.1,3.3,2.4v0.2L506.8,553.8z M502.1,544.2l0.1,2.4l3-0.4l0.4-2.5
			L502.1,544.2z"/>
		<path fill="#DAEDF2" d="M516.8,546.1l-2.2,0.3v2.3l1.3-0.6l0.1,0.3l-1.4,0.9v4.4c0,1.5-0.1,2-0.3,2.4c-0.1,0.1-0.1,0.1-0.2,0
			c-0.5-0.6-1-1.2-2-2.3l0.1-0.2l1.7,1.1c0.1-0.3,0.1-0.5,0.1-1.1v-4c-1.5,0.8-2.3,1.4-2.6,1.6l-0.9-0.4l3.4-1.7v-2.5
			c-0.9,0.1-1.8,0.3-2.1,0.4l-0.8-0.6l2.9-0.4v-1.6c0-1.6-0.2-2.3-0.5-2.8l0.2-0.2l1.1,0.8c0.1,0.1,0.1,0.2,0.1,0.3
			c-0.2,0.5-0.2,1-0.2,1.9v1.5c0.7-0.1,1.2-0.3,1.5-0.5l0.7,0.5C517,546,516.9,546.1,516.8,546.1z M524.5,547.3l-3.6,0.3l0.6,0.5
			c0.1,0.1,0.1,0.1,0,0.2c-0.1,0.1-0.2,0.4-0.2,1c0.9-0.1,1.8-0.3,2.1-0.5l0.7,0.5c0.1,0.1,0.1,0.2,0,0.2l-2.7,0.2v3.8
			c0,1.7,0,2-0.3,2.5c-0.1,0.2-0.2,0.2-0.3,0c-0.6-0.8-1.2-1.4-2-2.1l0.2-0.2l1.7,1.1c0.1-0.3,0.1-0.9,0.1-1.7v-3.3
			c-1.5,0.2-2.2,0.2-2.9,0.3l1.2,1.2c0,0.4-0.1,0.6-0.2,1c-0.1,0.2-0.2,0.2-0.3,0l-1.1-2.1c-0.5,0.1-0.8,0.1-1.1,0.2l-0.7-0.6l5-0.5
			c0-0.7-0.1-1.3-0.3-1.7c-2.1,0.2-4,0.5-4.4,0.6l-0.6-0.6l3.6-0.4v-2c-0.9,0.1-1.4,0.2-2,0.3l-0.7-0.6l2.7-0.3v-0.8
			c0-1.3-0.1-2.2-0.3-2.5l0.2-0.1l1,0.8c0.1,0.1,0.1,0.2,0,0.2c-0.1,0.1-0.2,0.8-0.2,1.3v1.1c1.4-0.2,2.1-0.3,2.5-0.6l0.6,0.5
			c0.2,0.1,0.1,0.2,0,0.2l-3.1,0.4v2.1c1.8-0.2,3.6-0.5,4.1-0.7l0.6,0.6C524.7,547.2,524.7,547.3,524.5,547.3z"/>
		<path fill="#DAEDF2" d="M538.7,554.7c-7.9,0.3-9.7,0.6-10.6,0.8l-0.9-0.7l5.5-0.3v-3.6c-1.6,0.2-2.4,0.3-2.8,0.4l-0.8-0.6
			c4.8-0.4,5.8-0.6,6.5-0.8l0.6,0.5c0.2,0.1,0.2,0.2-0.1,0.2l-2.9,0.3v3.6c3.2-0.2,4.2-0.4,4.7-0.6l0.8,0.6
			C538.9,554.6,538.9,554.7,538.7,554.7z M538.4,544.8c-0.5,0.2-1,0.8-1.9,2.2l-0.3-0.2l0.9-2l-8.3,0.7c0,0.9-0.3,1.8-0.7,2.3
			c-0.1,0.2-0.2,0.1-0.3,0l-0.3-1c0.4-0.4,1-1.3,0.9-3l0.3,0c0.1,0.4,0.2,0.8,0.2,1.2l8.3-0.7l0.5-0.5l0.9,0.8
			C538.5,544.7,538.5,544.8,538.4,544.8z M532.3,547.1c-0.2,0.1-0.4,0.3-0.9,0.8c-1.2,1.3-2.5,2.4-3.6,3.1l-0.2-0.2
			c2.8-2.2,4-4,4-4.7l0.2-0.1l0.5,0.9C532.4,547,532.4,547.1,532.3,547.1z M533.5,544.3c-0.1,0.1-0.2,0.1-0.3,0l-1.4-2.3l0.2-0.1
			l1.8,1.4C533.8,543.7,533.7,544.1,533.5,544.3z M537.4,549.9c-1.1-1-2.5-2.3-4-3.4l0.2-0.3l3.9,2.3c0.1,0.5,0.2,0.8,0.2,1.2
			C537.6,550.1,537.6,550.1,537.4,549.9z"/>
		<path fill="#DAEDF2" d="M551.7,555.2l-3.7-5.3c-0.8,2.7-2.4,4.6-6.1,5.9l-0.1-0.2c2.7-1.3,4.2-2.6,5.1-4.6
			c0.6-1.3,0.8-2.7,0.7-3.5c-1.5,0.2-2.1,0.3-2.7,0.4l-0.7-0.7c4.5-0.4,5.9-0.6,6.6-0.8l0.5-3.4c-4.4,0.4-5.9,0.6-6.4,0.8l-0.8-0.7
			l7.1-0.6l0.5-0.7l0.9,0.6c0.1,0.1,0.1,0.2,0,0.3c-0.2,0.2-0.4,0.4-0.5,1l-0.5,2.7l0.5,0.5c0.1,0.1,0.1,0.2-0.1,0.2l-3.7,0.4
			l0.6,0.6c0.1,0.1,0.1,0.1,0,0.2c-0.2,0.2-0.3,0.5-0.5,1.2l1.4,1.8c1.3-1.6,1.6-2.1,1.8-3l0.2-0.1l0.5,1.2c0,0.2,0,0.2-0.1,0.3
			c-0.4,0.2-0.7,0.4-2.1,1.8l1,1.3c1.1,1.4,1.7,1.7,3.8,1.9l0,0.3L551.7,555.2z M545.7,551.4c-0.1,0.2-0.1,0.2-0.2,0
			c-0.4-0.7-1-1.5-1.6-2.5l0.2-0.1l1.9,1.6C546,550.8,545.9,551.2,545.7,551.4z M550.2,545.1c-2.6,0.2-4.1,0.4-4.6,0.6l-0.8-0.6
			c3.8-0.3,4.4-0.4,4.9-0.7l0.5,0.6C550.4,545,550.4,545.1,550.2,545.1z"/>
		<path fill="#DAEDF2" d="M567.6,555.6c-0.5-0.4-3.6-1.5-5.9-2.3c-2.3-0.8-2.5-0.8-4.1,0l-0.9-0.8c1-0.2,1.7-0.4,2.4-0.3
			c1.4-1,3.3-2.7,6.6-6.1c-4.6,0.9-5.7,1.2-6.5,1.5l-1.1-0.6l8.1-1.6l0.9-0.8l0.6,0.8c0.1,0.2,0.1,0.2-0.1,0.3
			c-0.5,0.2-0.8,0.4-1.6,1.2c-3.1,2.8-4.8,4.3-6.1,5.4c0.5,0.1,1,0.3,1.7,0.5c5.3,1.7,6.2,1.8,8.8,1.3l0,0.3L567.6,555.6z
			 M563.5,545.3c-0.1,0.2-0.2,0.1-0.3,0l-1.4-3.1l0.2-0.2l1.9,2.2C563.8,544.5,563.7,544.9,563.5,545.3z"/>
		<path fill="#DAEDF2" d="M573.2,552.5c-0.1,0.1-0.2,0.1-0.2,0l-0.4-1.4c0.7-0.7,1.1-1.7,1.4-4.6h0.3
			C574.3,549.4,573.9,551.5,573.2,552.5z M583.1,554.4c-1.8,0.3-4.5-0.5-5.8-2.4c-0.9-1.3-1.3-2.8-1.7-5.2l0.3,0
			c0.7,2.7,1.4,4.4,2.5,5.4c1.1,1,2.5,1.4,3.6,1.4l-0.3-3.6l0.3,0c0.3,1.6,0.7,3,1.2,4.2C583.3,554.4,583.3,554.4,583.1,554.4z
			 M579.5,547.1c-0.1,0.2-0.2,0.1-0.2,0l-1.5-4l0.2-0.1l2,3C579.9,546.3,579.7,546.8,579.5,547.1z M584.8,549.1
			c-0.1,0.2-0.2,0.2-0.3,0l-2.6-3.3l0.2-0.2l2.9,2.3C585,548.4,584.9,548.8,584.8,549.1z"/>
		<path fill="#DAEDF2" d="M587.8,556c0.5-0.3,0.9-0.7,1-1.4c-0.5,0.1-1.1-0.3-1.1-1c0-0.6,0.5-1,1-1c0.6,0,1.1,0.5,1.1,1.2
			c0,1-0.7,2.2-1.6,2.6L587.8,556z"/>
		<path fill="#DAEDF2" d="M619.8,554.4c-0.9,0.2-1.6,0.2-3.1,0.2c-2.4-0.1-2.7-0.4-2.7-2.7v-2.8c0-1.1,0-1.4-0.1-1.7l-0.5,0
			c-1.1,4.2-2.5,5.5-6.1,7.7l-0.1-0.2c2.9-1.9,4.7-3.8,5.5-7.4c-2,0.2-3.3,0.4-3.9,0.5l-0.8-0.7l4.8-0.4c0.3-1.5,0.3-2.4,0.2-3.1
			c-1.4,0.1-2.4,0.3-2.8,0.4l-0.8-0.7c5.5-0.5,6.9-0.7,7.3-1l0.8,0.6c0.2,0.1,0.2,0.2,0,0.2l-4,0.4l0.6,0.6c0.1,0.1,0.1,0.1,0,0.2
			c-0.2,0.2-0.3,0.5-0.4,1.2c-0.1,0.4-0.1,0.6-0.2,1.1c2.5-0.3,4.5-0.6,4.8-0.8l0.8,0.6c0.2,0.1,0.2,0.2-0.1,0.2l-4.8,0.5l0.5,0.5
			c0.1,0.1,0.1,0.2,0,0.2c-0.2,0.2-0.2,0.5-0.2,1.1v3.1c0,1.4,0.5,1.7,1.9,1.6c1.6,0,1.9-0.1,2.2-0.2l0.2-2.9h0.3
			c0.2,1.3,0.4,2.3,0.7,3.4C620,554.3,619.9,554.4,619.8,554.4z"/>
		<path fill="#DAEDF2" d="M635.2,549.3l-4.9,0.4l0.3,0.5c0.1,0.1,0.1,0.2-0.1,0.3c-0.1,0.1-0.3,0.3-0.9,1.2l-1.8,2.4l4.5-0.6
			c-0.3-0.5-0.8-1.2-1.3-2l0.2-0.2l2.7,2.8c0,0.4-0.1,1-0.3,1.3c-0.1,0.2-0.2,0.2-0.3,0c-0.3-0.6-0.5-1.1-0.8-1.6
			c-3.7,0.7-4.9,1-5.2,1.1c-0.2,0.1-0.2,0.1-0.3,0l-0.9-0.6c1-0.3,1.3-0.6,2.3-2.1c0.6-0.9,1.1-1.9,1.3-2.5
			c-1.6,0.2-2.5,0.3-2.9,0.4l-0.6-0.4l-1.9,5.3c-0.1,0.2-0.2,0.2-0.2,0c-0.5-0.8-0.8-1.1-1.4-1.9l0.2-0.2l1.1,1l2.5-6.1l0.3,0.2
			l-0.5,1.5l3.7-0.3v-2.7c-1.1,0.1-2,0.3-2.4,0.4l-1-0.6l3.4-0.3v-1.7c0-1.2-0.1-1.9-0.3-2.3l0.2-0.2l0.9,1c0.1,0.1,0.1,0.1,0,0.2
			c-0.2,0.4-0.3,0.9-0.3,1.4v1.4c1.3-0.1,2.1-0.3,2.6-0.5l0.7,0.6c0.1,0.1,0.1,0.2,0,0.2l-3.3,0.3v2.7c2.7-0.2,3.2-0.4,3.8-0.6
			l0.8,0.6C635.4,549.1,635.4,549.2,635.2,549.3z M625.1,548.7c0,0.1-0.1,0.2-0.2,0l-2.1-2l0.1-0.2l2.2,1.1
			C625.2,548.1,625.2,548.3,625.1,548.7z M626.4,545.6c0,0.2-0.1,0.2-0.2,0l-1.9-2.3l0.1-0.2l2.1,1.4
			C626.5,544.9,626.5,545.2,626.4,545.6z"/>
		<path fill="#DAEDF2" d="M638.1,556c0.5-0.3,0.9-0.7,1-1.4c-0.5,0.1-1.1-0.3-1.1-1c0-0.6,0.5-1,1-1c0.6,0,1.1,0.5,1.1,1.2
			c0,1-0.7,2.2-1.6,2.6L638.1,556z"/>
		<path fill="#DAEDF2" d="M670.1,554.4c-0.9,0.2-1.6,0.2-3.1,0.2c-2.4-0.1-2.7-0.4-2.7-2.7v-2.8c0-1.1,0-1.4-0.1-1.7l-0.5,0
			c-1.1,4.2-2.5,5.5-6.1,7.7l-0.1-0.2c2.9-1.9,4.7-3.8,5.5-7.4c-2,0.2-3.3,0.4-3.9,0.5l-0.8-0.7l4.8-0.4c0.3-1.5,0.3-2.4,0.2-3.1
			c-1.4,0.1-2.4,0.3-2.8,0.4l-0.8-0.7c5.5-0.5,6.9-0.7,7.3-1l0.8,0.6c0.2,0.1,0.2,0.2,0,0.2l-4,0.4l0.6,0.6c0.1,0.1,0.1,0.1,0,0.2
			c-0.2,0.2-0.3,0.5-0.4,1.2c-0.1,0.4-0.1,0.6-0.2,1.1c2.5-0.3,4.5-0.6,4.8-0.8l0.8,0.6c0.2,0.1,0.2,0.2-0.1,0.2l-4.8,0.5l0.5,0.5
			c0.1,0.1,0.1,0.2,0,0.2c-0.2,0.2-0.2,0.5-0.2,1.1v3.1c0,1.4,0.5,1.7,1.9,1.6c1.6,0,1.9-0.1,2.2-0.2l0.2-2.9h0.3
			c0.2,1.3,0.4,2.3,0.7,3.4C670.2,554.3,670.2,554.4,670.1,554.4z"/>
		<path fill="#DAEDF2" d="M681.2,547.7l-1.9,0.2v4.1c0,1.7,0,2.1-0.1,2.3c-0.1,0.2-0.2,0.2-0.3,0l-0.6-0.9c0.3-0.4,0.3-0.6,0.3-1.9
			V548l-1.9,0.2c-0.3,3.5-1.4,5.2-4,7l-0.2-0.2c2.6-2.2,3.3-3.7,3.5-6.8c-1.4,0.2-1.8,0.3-2.3,0.5l-1-0.6l3.3-0.4
			c0.1-1.1,0.1-2.5,0.1-3.7c-0.7,0.1-1.2,0.2-1.5,0.3l-1-0.6c4.3-0.4,5.5-0.6,6.2-1l0.6,0.5c0.2,0.2,0.2,0.2-0.1,0.2l-1.3,0.2v3.7
			c0.5-0.1,1-0.3,1.3-0.4l0.7,0.5C681.5,547.6,681.5,547.7,681.2,547.7z M678.7,543.7l-1.7,0.2c0,1.1,0,2.5-0.1,3.7l1.9-0.2V543.7z
			 M685.8,549.7c-0.2,0.1-0.4,0.3-1.1,1.2c-1.7,2-4,4.1-6.4,5.1l-0.1-0.2c4.5-2.6,6.9-6.5,6.9-7.5l0.2-0.1l0.6,1.2
			C685.9,549.6,685.9,549.6,685.8,549.7z M684.9,546.7c-0.3,0.1-0.5,0.3-1,0.8c-0.9,1-2.6,2.3-3.4,2.9l-0.1-0.2
			c2.3-2,3.7-3.6,4.1-4.9h0.2l0.4,1.2C685,546.6,685,546.7,684.9,546.7z M684.5,543.2c-0.3,0.1-0.6,0.3-1.4,1.1
			c-0.6,0.6-1.7,1.5-2.5,2l-0.2-0.2c1.7-1.4,3.2-3.2,3.4-4.5l0.2,0l0.6,1.2C684.7,543.1,684.7,543.2,684.5,543.2z"/>
		<path fill="#DAEDF2" d="M688.4,556c0.5-0.3,0.9-0.7,1-1.4c-0.5,0.1-1.1-0.3-1.1-1c0-0.6,0.5-1,1-1c0.6,0,1.1,0.5,1.1,1.2
			c0,1-0.7,2.2-1.6,2.6L688.4,556z"/>
		<path fill="#DAEDF2" d="M710.9,551.7c-0.2,0.1-0.3,0.2-0.7,0.6c-0.8,0.9-1.7,1.6-2.3,2l-0.1-0.2c1.8-1.7,2.6-2.9,2.6-3.6l0.2-0.1
			l0.4,0.8C711,551.5,711,551.6,710.9,551.7z M708.9,545.8l-0.8-0.6c5.1-0.6,6-0.8,6.7-1.1l0.6,0.7
			C711.1,545.3,709.6,545.6,708.9,545.8z M714,547.3l-0.2,1.3l0.3,0.4c0.1,0.1,0.1,0.2-0.1,0.2l-1.9,0.2l0.4,0.4
			c0.1,0.1,0.1,0.2,0,0.3c-0.1,0.1-0.1,0.4-0.1,0.7v2.5c0,1.1-0.1,1.8-0.2,2.1c-0.1,0.2-0.2,0.2-0.4,0c-0.4-0.5-0.8-1-1.6-1.8
			l0.1-0.2l1.3,0.8c0.1-0.4,0.1-0.6,0.1-1.2v-2.3c0-0.6,0-1.1-0.1-1.4l-0.9,0.1c0,0.2,0,0.4-0.1,0.5c0,0.1-0.1,0.2-0.2,0l-0.5-0.8
			c0.1-0.2,0.2-0.4,0.2-0.8l0-0.9c0-0.6-0.1-0.9-0.2-1.5l0.2-0.1l0.4,0.8l2.7-0.4l0.4-0.5l0.6,0.5c0.1,0.1,0.1,0.2,0,0.2
			C714.1,546.9,714,547,714,547.3z M710.7,547.4l0.1,1.8l2.4-0.4l0.2-1.8L710.7,547.4z M712.3,544.3c-0.1,0.2-0.2,0.2-0.3,0
			l-1.1-2.4l0.2-0.2l1.5,1.6C712.6,543.8,712.5,544,712.3,544.3z M720.8,555.5c-0.4,0.1-1.1,0.2-1.7,0.1c-1.9-0.1-2.2-0.3-2.2-2.5
			v-3.9c0-0.9,0-1.3-0.1-1.6l-0.2,0c-0.7,4.4-1.6,6.4-3.8,8.1l-0.2-0.2c2.1-2,2.7-3.9,3.3-7.9c-0.6,0.1-0.9,0.2-1.3,0.3l-0.6-0.5
			l2.1-0.3c0.4-3.2,0.4-5,0.1-5.5l0.2-0.1l1.1,0.9c0.1,0.1,0.1,0.2,0,0.3c-0.2,0.3-0.3,0.7-0.4,1.3c-0.1,1.3-0.2,1.9-0.3,3.1
			c1.3-0.2,2.3-0.4,2.9-0.7l0.6,0.5c0.2,0.1,0.2,0.2,0,0.2l-3,0.4l0.5,0.6c0.1,0.1,0.1,0.1,0,0.2c-0.1,0.2-0.2,0.5-0.2,1.1v4
			c0,1.3,0.3,1.5,1.5,1.5c0.4,0,0.7,0,1.1-0.2l0.1-2.6h0.3c0.1,1.3,0.2,2,0.5,3C721,555.5,720.9,555.5,720.8,555.5z M714.5,552.7
			c0,0.2-0.1,0.2-0.2,0c-0.4-0.7-0.8-1.1-1.4-1.9l0.2-0.2l1.7,1.2C714.6,552.3,714.5,552.4,714.5,552.7z M719.4,545.8
			c-0.1,0.1-0.1,0.1-0.2,0l-1.3-1.9l0.2-0.2l1.6,1.2C719.6,545.3,719.5,545.5,719.4,545.8z"/>
		<path fill="#DAEDF2" d="M727.4,543.1c-0.2,0.1-0.4,0.4-0.7,0.9c-0.3,0.4-0.6,0.9-0.8,1.2v8.4c0,1.8,0,2.1-0.1,2.4
			c-0.1,0.2-0.2,0.1-0.2,0l-0.6-1.2c0.2-0.4,0.3-1,0.3-1.7v-7c-0.8,1.1-1.7,1.9-2.6,2.8l-0.2-0.2c2.7-3,4.2-5.8,4-6.9l0.2-0.1
			l0.8,1.2C727.5,542.9,727.5,543,727.4,543.1z M734.7,554.6l-2.5-3.7l-0.3,0.2c0.4,1.7,0,4.3-0.6,5c-0.1,0.1-0.2,0.1-0.3,0
			c-0.5-0.7-0.9-1.1-1.6-1.8l0.1-0.2l1.5,0.9c0.4-0.8,0.5-2,0.4-3.1c-1.8,1.6-2.8,2.3-5,3.2l-0.1-0.3c2.3-1.2,3.6-2.2,5-3.7
			c-0.1-0.3-0.1-0.5-0.2-0.7c-1.3,1.3-2.4,2.1-4.1,2.9l-0.2-0.3c2-1.2,2.7-1.7,4-3.2c-0.1-0.2-0.3-0.4-0.4-0.6
			c-0.7,0.8-1.7,1.5-3.3,2.4l-0.1-0.2c1.8-1.1,2.8-2.1,3.3-3l-1.4,0.2c0,0.8-0.1,0.9-0.3,0.6l-0.6-0.8c0.2-0.5,0.2-1.1,0-2.3
			c-0.4,0.4-0.8,0.7-1.3,1.1l-0.2-0.2c2.3-2.3,3.4-4.4,3.3-5.7l0.2-0.1l0.8,1c0.1,0.1,0.1,0.1,0,0.2c-0.2,0.1-0.3,0.3-0.6,0.7
			c-0.2,0.4-0.3,0.5-0.5,0.8l2.2-0.4l0.4-0.5l0.7,0.6c0.1,0.1,0.1,0.2,0,0.2c-0.2,0.1-0.5,0.3-1.5,1.7l2.3-0.3l0.4-0.4l0.7,0.6
			c0.1,0.1,0.1,0.2,0,0.2c-0.2,0.1-0.3,0.3-0.4,0.5l-0.3,1l0.4,0.4c0.1,0.1,0.1,0.2,0,0.2l-3.5,0.5c-0.2,0.3-0.2,0.4-0.4,0.6
			c0.7,0.5,1,1.1,1.2,1.7c1.5-1.2,2.1-1.9,2.2-2.4l0.2-0.1l0.4,0.9c0.1,0.2,0,0.3-0.1,0.3c-0.2,0-0.6,0.3-1.9,1.3l1.3,1.8
			c1,1.3,1.6,1.7,3,1.9l0,0.2L734.7,554.6z M730,544.5l-0.4-0.3c-0.4,0.6-0.8,1.1-1.3,1.6l0.2,0.2l2.5-0.4l0.8-1.5
			C730.9,544.3,730.4,544.4,730,544.5z M728.8,546.5l0.1,1.5l1.7-0.3c0.3-0.6,0.4-1.1,0.4-1.6L728.8,546.5z M731.5,546.1l0.3,0.3
			c0.1,0,0.1,0.1,0,0.2c-0.1,0.2-0.2,0.3-0.5,1.1l2.3-0.4l0.3-1.6L731.5,546.1z"/>
		<path fill="#DAEDF2" d="M744.4,547.3c-0.2,0.1-0.4,0.4-0.7,1.1c-1.1,2.6-2.9,4.6-5.4,6.5l-0.2-0.2c2.5-2,4.4-4.8,5.1-7.2
			c-1.9,0.3-2.8,0.5-3.4,0.7l-0.8-0.6l4.2-0.7l0.4-0.5l0.7,0.6C744.5,547.1,744.5,547.2,744.4,547.3z M749.1,553.7l-3.7-7v5.7
			c0,2.1-0.1,2.8-0.3,3.4c-0.1,0.2-0.1,0.2-0.3,0c-0.4-0.5-1.1-1.1-2.4-2.4l0.2-0.2l2,1.2c0.2-0.5,0.2-1,0.2-2.4v-7.8
			c0-1.1-0.2-1.9-0.5-2.5l0.2-0.2l1.2,0.9c0.1,0.1,0.1,0.2,0,0.3c-0.2,0.3-0.3,0.9-0.3,1.5v1.4l1.4,2.4c1.8-1.6,2.4-2.3,2.6-3l0.2,0
			l0.4,1.2c0,0.2,0,0.2-0.2,0.3c-0.3,0.1-0.8,0.4-2.9,1.9c2.5,4.3,2.8,4.4,5,4.8v0.3L749.1,553.7z"/>
		<path fill="#DAEDF2" d="M766.5,548c-9,0.7-10.3,0.8-11.5,1.1l-1.1-0.8c9.6-0.6,11-0.9,11.8-1.2l0.8,0.7
			C766.7,547.9,766.7,548,766.5,548z"/>
		<path fill="#DAEDF2" d="M782.3,550.4l-4,0.3v2.9c0,1.8,0,2.3-0.1,2.5c-0.1,0.2-0.1,0.2-0.2,0.1l-0.7-1.1c0.2-0.4,0.4-0.8,0.4-2.5
			v-1.7c-1.2,0.1-2.8,0.3-3.1,0.4l-0.7-0.6l3.8-0.3v-1.8c-1,0.1-1.5,0.2-1.9,0.4l-0.6-0.6l2.5-0.3V546c-1.1,0.1-2,0.3-2.3,0.4
			l-0.5-0.4l-2,0.3v1l1.7,0.9c0.1,0.5,0.1,0.9,0,1.1c-0.1,0.2-0.1,0.2-0.2,0.1l-1.5-1.7v5.3c0,2,0,2.6-0.1,2.9c0,0.2-0.1,0.2-0.2,0
			l-0.7-1.1c0.3-0.5,0.4-0.9,0.4-2.4V548c-0.8,1.5-2.2,3.1-3.3,4.2l-0.2-0.2c1.7-2.1,2.9-4,3.4-5.7c-0.8,0.1-1.8,0.3-2.2,0.4
			l-0.8-0.7l3-0.3v-1.5c0-1-0.1-1.9-0.4-2.6l0.2-0.2l1.1,0.9c0.1,0.1,0.1,0.2,0,0.3c-0.2,0.3-0.4,1-0.4,1.7v1.3
			c0.6-0.1,1.3-0.2,1.6-0.4l0.6,0.5l3.2-0.4c0.8-1.8,1.1-3.3,1.1-3.9l0.2-0.1l0.7,1.1c0.1,0.1,0.1,0.2,0,0.2
			c-0.2,0.1-0.5,0.5-1.5,2.7c1.1-0.2,2-0.4,2.3-0.5l0.7,0.5c0.2,0.1,0.2,0.2-0.1,0.2l-3.3,0.4v1.8c0.9-0.2,1.6-0.3,2-0.5l0.6,0.5
			c0.2,0.2,0.2,0.2-0.1,0.2l-2.6,0.3v1.9c1.9-0.2,3-0.4,3.3-0.6l0.8,0.6C782.6,550.3,782.5,550.4,782.3,550.4z M777.3,544.8
			c-0.1,0.2-0.2,0.2-0.2,0l-1.5-2.7l0.2-0.2l1.8,1.8C777.5,544.2,777.4,544.5,777.3,544.8z"/>
		<path fill="#DAEDF2" d="M494.4,561.7h0.8v0.9c0.4-0.5,0.8-1,1.8-1c0.9,0,1.4,0.5,1.7,1.1c0.4-0.6,1-1.1,1.9-1.1c1.2,0,2,0.8,2,2.2
			v3.4h-0.8V564c0-1-0.5-1.6-1.4-1.6c-0.8,0-1.5,0.6-1.5,1.7v3.1h-0.8V564c0-1-0.5-1.6-1.4-1.6s-1.5,0.7-1.5,1.7v3.1h-0.8V561.7z"/>
		<path fill="#DAEDF2" d="M503.9,565.6L503.9,565.6c0-1.2,0.9-1.8,2.3-1.8c0.7,0,1.2,0.1,1.7,0.2v-0.2c0-1-0.6-1.5-1.6-1.5
			c-0.6,0-1.1,0.2-1.6,0.4l-0.2-0.7c0.6-0.3,1.2-0.5,2-0.5c0.8,0,1.4,0.2,1.8,0.6c0.4,0.4,0.6,0.9,0.6,1.6v3.3h-0.8v-0.8
			c-0.4,0.5-1,0.9-2,0.9C504.9,567.3,503.9,566.7,503.9,565.6z M507.9,565.2v-0.5c-0.4-0.1-0.9-0.2-1.6-0.2c-1,0-1.6,0.4-1.6,1.1v0
			c0,0.7,0.6,1.1,1.4,1.1C507.1,566.6,507.9,566,507.9,565.2z"/>
		<path fill="#DAEDF2" d="M510.4,559.7h0.9v0.9h-0.9V559.7z M510.5,561.7h0.8v5.4h-0.8V561.7z"/>
		<path fill="#DAEDF2" d="M513.2,561.7h0.8v0.9c0.4-0.6,0.9-1.1,1.9-1.1c1.3,0,2.1,0.9,2.1,2.2v3.4h-0.8V564c0-1-0.5-1.6-1.5-1.6
			c-0.9,0-1.6,0.7-1.6,1.7v3.1h-0.8V561.7z"/>
		<path fill="#DAEDF2" d="M519.9,565.7v-3.3h-0.8v-0.7h0.8v-1.6h0.8v1.6h1.7v0.7h-1.7v3.2c0,0.7,0.4,0.9,0.9,0.9
			c0.3,0,0.5-0.1,0.8-0.2v0.7c-0.3,0.1-0.6,0.2-1,0.2C520.6,567.3,519.9,566.8,519.9,565.7z"/>
		<path fill="#DAEDF2" d="M523.5,565.6L523.5,565.6c0-1.2,0.9-1.8,2.3-1.8c0.7,0,1.2,0.1,1.7,0.2v-0.2c0-1-0.6-1.5-1.6-1.5
			c-0.6,0-1.1,0.2-1.6,0.4l-0.2-0.7c0.6-0.3,1.2-0.5,2-0.5c0.8,0,1.4,0.2,1.8,0.6c0.4,0.4,0.6,0.9,0.6,1.6v3.3h-0.8v-0.8
			c-0.4,0.5-1,0.9-2,0.9C524.5,567.3,523.5,566.7,523.5,565.6z M527.5,565.2v-0.5c-0.4-0.1-0.9-0.2-1.6-0.2c-1,0-1.6,0.4-1.6,1.1v0
			c0,0.7,0.6,1.1,1.4,1.1C526.6,566.6,527.5,566,527.5,565.2z"/>
		<path fill="#DAEDF2" d="M530,559.7h0.9v0.9H530V559.7z M530,561.7h0.8v5.4H530V561.7z"/>
		<path fill="#DAEDF2" d="M532.7,561.7h0.8v0.9c0.4-0.6,0.9-1.1,1.9-1.1c1.3,0,2.1,0.9,2.1,2.2v3.4h-0.8V564c0-1-0.5-1.6-1.5-1.6
			c-0.9,0-1.6,0.7-1.6,1.7v3.1h-0.8V561.7z"/>
		<path fill="#DAEDF2" d="M541.9,565.6L541.9,565.6c0-1.2,0.9-1.8,2.3-1.8c0.7,0,1.2,0.1,1.7,0.2v-0.2c0-1-0.6-1.5-1.6-1.5
			c-0.6,0-1.1,0.2-1.6,0.4l-0.2-0.7c0.6-0.3,1.2-0.5,2-0.5c0.8,0,1.4,0.2,1.8,0.6c0.4,0.4,0.6,0.9,0.6,1.6v3.3h-0.8v-0.8
			c-0.4,0.5-1,0.9-2,0.9C542.9,567.3,541.9,566.7,541.9,565.6z M545.9,565.2v-0.5c-0.4-0.1-0.9-0.2-1.6-0.2c-1,0-1.6,0.4-1.6,1.1v0
			c0,0.7,0.6,1.1,1.4,1.1C545.1,566.6,545.9,566,545.9,565.2z"/>
		<path fill="#DAEDF2" d="M551.8,562.5h-0.7v-0.7h0.7v-0.5c0-0.6,0.2-1.1,0.5-1.4c0.3-0.3,0.7-0.4,1.2-0.4c0.4,0,0.6,0,0.9,0.1v0.7
			c-0.3-0.1-0.5-0.1-0.8-0.1c-0.6,0-0.9,0.4-0.9,1.2v0.4h1.7v0.7h-1.7v4.7h-0.8V562.5z"/>
		<path fill="#DAEDF2" d="M555.4,561.7h0.8v1.4c0.4-0.9,1.2-1.6,2.2-1.5v0.9h-0.1c-1.2,0-2.1,0.8-2.1,2.5v2.2h-0.8V561.7z"/>
		<path fill="#DAEDF2" d="M559,564.5L559,564.5c0-1.6,1.1-2.8,2.6-2.8c1.6,0,2.5,1.3,2.5,2.9c0,0.1,0,0.2,0,0.3h-4.3
			c0.1,1.2,0.9,1.8,1.9,1.8c0.7,0,1.3-0.3,1.7-0.8l0.5,0.5c-0.5,0.6-1.2,1-2.2,1C560.3,567.3,559,566.2,559,564.5z M563.4,564.2
			c-0.1-1-0.6-1.8-1.7-1.8c-0.9,0-1.7,0.8-1.8,1.8H563.4z"/>
		<path fill="#DAEDF2" d="M565.3,564.5L565.3,564.5c0-1.6,1.1-2.8,2.6-2.8c1.6,0,2.5,1.3,2.5,2.9c0,0.1,0,0.2,0,0.3h-4.3
			c0.1,1.2,0.9,1.8,1.9,1.8c0.7,0,1.3-0.3,1.7-0.8l0.5,0.5c-0.5,0.6-1.2,1-2.2,1C566.5,567.3,565.3,566.2,565.3,564.5z M569.6,564.2
			c-0.1-1-0.6-1.8-1.7-1.8c-0.9,0-1.7,0.8-1.8,1.8H569.6z"/>
		<path fill="#DAEDF2" d="M574.9,559.5h0.8v3.2c0.4-0.6,0.9-1.1,1.9-1.1c1.3,0,2.1,0.9,2.1,2.2v3.4h-0.8V564c0-1-0.5-1.6-1.5-1.6
			c-0.9,0-1.6,0.7-1.6,1.7v3.1h-0.8V559.5z"/>
		<path fill="#DAEDF2" d="M581.1,564.5L581.1,564.5c0-1.6,1.1-2.8,2.6-2.8c1.6,0,2.5,1.3,2.5,2.9c0,0.1,0,0.2,0,0.3h-4.3
			c0.1,1.2,0.9,1.8,1.9,1.8c0.7,0,1.3-0.3,1.7-0.8l0.5,0.5c-0.5,0.6-1.2,1-2.2,1C582.3,567.3,581.1,566.2,581.1,564.5z M585.4,564.2
			c-0.1-1-0.6-1.8-1.7-1.8c-0.9,0-1.7,0.8-1.8,1.8H585.4z"/>
		<path fill="#DAEDF2" d="M587.2,565.6L587.2,565.6c0-1.2,0.9-1.8,2.3-1.8c0.7,0,1.2,0.1,1.7,0.2v-0.2c0-1-0.6-1.5-1.6-1.5
			c-0.6,0-1.1,0.2-1.6,0.4l-0.2-0.7c0.6-0.3,1.2-0.5,2-0.5c0.8,0,1.4,0.2,1.8,0.6c0.4,0.4,0.6,0.9,0.6,1.6v3.3h-0.8v-0.8
			c-0.4,0.5-1,0.9-2,0.9C588.2,567.3,587.2,566.7,587.2,565.6z M591.2,565.2v-0.5c-0.4-0.1-0.9-0.2-1.6-0.2c-1,0-1.6,0.4-1.6,1.1v0
			c0,0.7,0.6,1.1,1.4,1.1C590.4,566.6,591.2,566,591.2,565.2z"/>
		<path fill="#DAEDF2" d="M593.7,561.7h0.8v1.4c0.4-0.9,1.2-1.6,2.2-1.5v0.9h-0.1c-1.2,0-2.1,0.8-2.1,2.5v2.2h-0.8V561.7z"/>
		<path fill="#DAEDF2" d="M598.2,565.7v-3.3h-0.8v-0.7h0.8v-1.6h0.8v1.6h1.7v0.7H599v3.2c0,0.7,0.4,0.9,0.9,0.9
			c0.3,0,0.5-0.1,0.8-0.2v0.7c-0.3,0.1-0.6,0.2-1,0.2C598.9,567.3,598.2,566.8,598.2,565.7z"/>
		<path fill="#DAEDF2" d="M601.8,568.1c0.5-0.2,0.7-0.5,0.7-0.9h-0.4v-1.1h1v0.9c0,0.8-0.4,1.3-1.2,1.4L601.8,568.1z"/>
		<path fill="#DAEDF2" d="M607.4,566.5l0.4-0.6c0.6,0.4,1.2,0.7,1.9,0.7c0.6,0,1.1-0.3,1.1-0.9v0c0-0.5-0.6-0.8-1.4-1
			c-0.9-0.2-1.8-0.5-1.8-1.5v0c0-0.9,0.8-1.6,1.8-1.6c0.7,0,1.4,0.2,2,0.6l-0.4,0.6c-0.5-0.3-1.1-0.5-1.6-0.5c-0.6,0-1,0.3-1,0.8v0
			c0,0.5,0.7,0.7,1.4,0.9c0.8,0.3,1.7,0.6,1.7,1.6v0c0,1-0.9,1.6-1.9,1.6C608.9,567.3,608,567,607.4,566.5z"/>
		<path fill="#DAEDF2" d="M613.1,559.5h0.8v3.2c0.4-0.6,0.9-1.1,1.9-1.1c1.3,0,2.1,0.9,2.1,2.2v3.4H617V564c0-1-0.5-1.6-1.5-1.6
			c-0.9,0-1.6,0.7-1.6,1.7v3.1h-0.8V559.5z"/>
		<path fill="#DAEDF2" d="M619.2,565.6L619.2,565.6c0-1.2,0.9-1.8,2.3-1.8c0.7,0,1.2,0.1,1.7,0.2v-0.2c0-1-0.6-1.5-1.6-1.5
			c-0.6,0-1.1,0.2-1.6,0.4l-0.2-0.7c0.6-0.3,1.2-0.5,2-0.5c0.8,0,1.4,0.2,1.8,0.6c0.4,0.4,0.6,0.9,0.6,1.6v3.3h-0.8v-0.8
			c-0.4,0.5-1,0.9-2,0.9C620.2,567.3,619.2,566.7,619.2,565.6z M623.2,565.2v-0.5c-0.4-0.1-0.9-0.2-1.6-0.2c-1,0-1.6,0.4-1.6,1.1v0
			c0,0.7,0.6,1.1,1.4,1.1C622.3,566.6,623.2,566,623.2,565.2z"/>
		<path fill="#DAEDF2" d="M625.6,561.7h0.8v1.1c0.4-0.7,1.1-1.2,2.1-1.2c1.3,0,2.6,1,2.6,2.8v0c0,1.8-1.3,2.8-2.6,2.8
			c-1,0-1.7-0.5-2.1-1.2v2.7h-0.8V561.7z M630.3,564.5L630.3,564.5c0-1.3-0.9-2.1-1.9-2.1c-1,0-2,0.8-2,2.1v0c0,1.3,1,2.1,2,2.1
			C629.4,566.6,630.3,565.8,630.3,564.5z"/>
		<path fill="#DAEDF2" d="M632.3,564.5L632.3,564.5c0-1.6,1.1-2.8,2.6-2.8c1.6,0,2.5,1.3,2.5,2.9c0,0.1,0,0.2,0,0.3h-4.3
			c0.1,1.2,0.9,1.8,1.9,1.8c0.7,0,1.3-0.3,1.7-0.8l0.5,0.5c-0.5,0.6-1.2,1-2.2,1C633.5,567.3,632.3,566.2,632.3,564.5z M636.6,564.2
			c-0.1-1-0.6-1.8-1.7-1.8c-0.9,0-1.7,0.8-1.8,1.8H636.6z"/>
		<path fill="#DAEDF2" d="M638.9,559.5h0.8v7.7h-0.8V559.5z"/>
		<path fill="#DAEDF2" d="M641.2,564.5L641.2,564.5c0-1.6,1.1-2.8,2.6-2.8c1.6,0,2.5,1.3,2.5,2.9c0,0.1,0,0.2,0,0.3h-4.3
			c0.1,1.2,0.9,1.8,1.9,1.8c0.7,0,1.3-0.3,1.7-0.8l0.5,0.5c-0.5,0.6-1.2,1-2.2,1C642.5,567.3,641.2,566.2,641.2,564.5z M645.5,564.2
			c-0.1-1-0.6-1.8-1.7-1.8c-0.9,0-1.7,0.8-1.8,1.8H645.5z"/>
		<path fill="#DAEDF2" d="M647.3,566.5l0.4-0.6c0.6,0.4,1.2,0.7,1.9,0.7c0.6,0,1.1-0.3,1.1-0.9v0c0-0.5-0.6-0.8-1.4-1
			c-0.9-0.2-1.8-0.5-1.8-1.5v0c0-0.9,0.8-1.6,1.8-1.6c0.7,0,1.4,0.2,2,0.6l-0.4,0.6c-0.5-0.3-1.1-0.5-1.6-0.5c-0.6,0-1,0.3-1,0.8v0
			c0,0.5,0.7,0.7,1.4,0.9c0.8,0.3,1.7,0.6,1.7,1.6v0c0,1-0.8,1.6-1.9,1.6C648.8,567.3,647.9,567,647.3,566.5z"/>
		<path fill="#DAEDF2" d="M652.4,566.5l0.4-0.6c0.6,0.4,1.2,0.7,1.9,0.7c0.6,0,1.1-0.3,1.1-0.9v0c0-0.5-0.6-0.8-1.4-1
			c-0.9-0.2-1.8-0.5-1.8-1.5v0c0-0.9,0.8-1.6,1.8-1.6c0.7,0,1.4,0.2,2,0.6l-0.4,0.6c-0.5-0.3-1.1-0.5-1.6-0.5c-0.6,0-1,0.3-1,0.8v0
			c0,0.5,0.7,0.7,1.4,0.9c0.8,0.3,1.7,0.6,1.7,1.6v0c0,1-0.8,1.6-1.9,1.6C653.9,567.3,653.1,567,652.4,566.5z"/>
		<path fill="#DAEDF2" d="M657.7,568.1c0.5-0.2,0.7-0.5,0.7-0.9H658v-1.1h1v0.9c0,0.8-0.4,1.3-1.2,1.4L657.7,568.1z"/>
		<path fill="#DAEDF2" d="M664.1,562.5h-0.7v-0.7h0.7v-0.5c0-0.6,0.2-1.1,0.5-1.4c0.3-0.3,0.7-0.4,1.2-0.4c0.4,0,0.6,0,0.9,0.1v0.7
			c-0.3-0.1-0.5-0.1-0.8-0.1c-0.6,0-0.9,0.4-0.9,1.2v0.4h1.7v0.7h-1.7v4.7h-0.8V562.5z"/>
		<path fill="#DAEDF2" d="M667.2,564.5L667.2,564.5c0-1.6,1.2-2.9,2.8-2.9c1.6,0,2.8,1.3,2.8,2.8v0c0,1.5-1.2,2.8-2.8,2.8
			C668.4,567.3,667.2,566,667.2,564.5z M672.1,564.5L672.1,564.5c0-1.2-0.9-2.1-2-2.1c-1.2,0-2,1-2,2.1v0c0,1.2,0.9,2.1,2,2.1
			C671.3,566.6,672.1,565.6,672.1,564.5z"/>
		<path fill="#DAEDF2" d="M674.4,561.7h0.8v1.4c0.4-0.9,1.2-1.6,2.2-1.5v0.9h-0.1c-1.2,0-2.1,0.8-2.1,2.5v2.2h-0.8V561.7z"/>
		<path fill="#DAEDF2" d="M678.6,561.7h0.8v0.9c0.4-0.5,0.8-1,1.8-1c0.9,0,1.4,0.5,1.7,1.1c0.4-0.6,1-1.1,1.9-1.1c1.2,0,2,0.8,2,2.2
			v3.4H686V564c0-1-0.5-1.6-1.4-1.6c-0.8,0-1.5,0.6-1.5,1.7v3.1h-0.8V564c0-1-0.5-1.6-1.4-1.6s-1.5,0.7-1.5,1.7v3.1h-0.8V561.7z"/>
		<path fill="#DAEDF2" d="M688.6,559.5h0.8v7.7h-0.8V559.5z"/>
		<path fill="#DAEDF2" d="M691,564.5L691,564.5c0-1.6,1.1-2.8,2.6-2.8c1.6,0,2.5,1.3,2.5,2.9c0,0.1,0,0.2,0,0.3h-4.3
			c0.1,1.2,0.9,1.8,1.9,1.8c0.7,0,1.3-0.3,1.7-0.8l0.5,0.5c-0.5,0.6-1.2,1-2.2,1C692.2,567.3,691,566.2,691,564.5z M695.3,564.2
			c-0.1-1-0.6-1.8-1.7-1.8c-0.9,0-1.7,0.8-1.8,1.8H695.3z"/>
		<path fill="#DAEDF2" d="M697.1,566.5l0.4-0.6c0.6,0.4,1.2,0.7,1.9,0.7c0.6,0,1.1-0.3,1.1-0.9v0c0-0.5-0.6-0.8-1.4-1
			c-0.9-0.2-1.8-0.5-1.8-1.5v0c0-0.9,0.8-1.6,1.8-1.6c0.7,0,1.4,0.2,2,0.6l-0.4,0.6c-0.5-0.3-1.1-0.5-1.6-0.5c-0.6,0-1,0.3-1,0.8v0
			c0,0.5,0.7,0.7,1.4,0.9c0.8,0.3,1.7,0.6,1.7,1.6v0c0,1-0.9,1.6-1.9,1.6C698.6,567.3,697.7,567,697.1,566.5z"/>
		<path fill="#DAEDF2" d="M702.2,566.5l0.4-0.6c0.6,0.4,1.2,0.7,1.9,0.7c0.6,0,1.1-0.3,1.1-0.9v0c0-0.5-0.6-0.8-1.4-1
			c-0.9-0.2-1.8-0.5-1.8-1.5v0c0-0.9,0.8-1.6,1.8-1.6c0.7,0,1.4,0.2,2,0.6l-0.4,0.6c-0.5-0.3-1.1-0.5-1.6-0.5c-0.6,0-1,0.3-1,0.8v0
			c0,0.5,0.7,0.7,1.4,0.9c0.8,0.3,1.7,0.6,1.7,1.6v0c0,1-0.9,1.6-1.9,1.6C703.7,567.3,702.8,567,702.2,566.5z"/>
		<path fill="#DAEDF2" d="M707.5,568.1c0.5-0.2,0.7-0.5,0.7-0.9h-0.4v-1.1h1v0.9c0,0.8-0.4,1.3-1.2,1.4L707.5,568.1z"/>
		<path fill="#DAEDF2" d="M712.7,568.8v-0.7c0.1,0,0.3,0,0.4,0c0.4,0,0.6-0.2,0.6-0.7v-5.7h0.8v5.7c0,1-0.5,1.4-1.3,1.4
			C713,568.9,712.8,568.9,712.7,568.8z M713.6,559.7h0.9v0.9h-0.9V559.7z"/>
		<path fill="#DAEDF2" d="M716.3,565.1v-3.4h0.8v3.2c0,1,0.5,1.6,1.5,1.6c0.9,0,1.6-0.7,1.6-1.7v-3.1h0.8v5.4h-0.8v-0.9
			c-0.4,0.6-0.9,1.1-1.9,1.1C717,567.3,716.3,566.4,716.3,565.1z"/>
		<path fill="#DAEDF2" d="M722.4,566.5l0.4-0.6c0.6,0.4,1.2,0.7,1.9,0.7c0.6,0,1.1-0.3,1.1-0.9v0c0-0.5-0.6-0.8-1.4-1
			c-0.9-0.2-1.8-0.5-1.8-1.5v0c0-0.9,0.8-1.6,1.8-1.6c0.7,0,1.4,0.2,2,0.6l-0.4,0.6c-0.5-0.3-1.1-0.5-1.6-0.5c-0.6,0-1,0.3-1,0.8v0
			c0,0.5,0.7,0.7,1.4,0.9c0.8,0.3,1.7,0.6,1.7,1.6v0c0,1-0.9,1.6-1.9,1.6C723.8,567.3,723,567,722.4,566.5z"/>
		<path fill="#DAEDF2" d="M728.2,565.7v-3.3h-0.8v-0.7h0.8v-1.6h0.8v1.6h1.7v0.7H729v3.2c0,0.7,0.4,0.9,0.9,0.9
			c0.3,0,0.5-0.1,0.8-0.2v0.7c-0.3,0.1-0.6,0.2-1,0.2C728.9,567.3,728.2,566.8,728.2,565.7z"/>
		<path fill="#DAEDF2" d="M735.4,559.5h0.8v7.7h-0.8V559.5z"/>
		<path fill="#DAEDF2" d="M738.1,559.7h0.9v0.9h-0.9V559.7z M738.1,561.7h0.8v5.4h-0.8V561.7z"/>
		<path fill="#DAEDF2" d="M740.8,559.5h0.8v5.3l2.9-3.1h1l-2.3,2.3l2.3,3.1h-1l-1.9-2.5l-1.1,1.1v1.4h-0.8V559.5z"/>
		<path fill="#DAEDF2" d="M746.2,564.5L746.2,564.5c0-1.6,1.1-2.8,2.6-2.8c1.6,0,2.5,1.3,2.5,2.9c0,0.1,0,0.2,0,0.3H747
			c0.1,1.2,0.9,1.8,1.9,1.8c0.7,0,1.3-0.3,1.7-0.8l0.5,0.5c-0.5,0.6-1.2,1-2.2,1C747.4,567.3,746.2,566.2,746.2,564.5z M750.5,564.2
			c-0.1-1-0.6-1.8-1.7-1.8c-0.9,0-1.7,0.8-1.8,1.8H750.5z"/>
		<path fill="#DAEDF2" d="M755.4,561.7h0.9l1.4,4.4l1.5-4.4h0.7l1.5,4.4l1.4-4.4h0.8l-1.9,5.5H761l-1.5-4.3l-1.5,4.3h-0.7
			L755.4,561.7z"/>
		<path fill="#DAEDF2" d="M764.3,565.6L764.3,565.6c0-1.2,0.9-1.8,2.3-1.8c0.7,0,1.2,0.1,1.7,0.2v-0.2c0-1-0.6-1.5-1.6-1.5
			c-0.6,0-1.1,0.2-1.6,0.4l-0.2-0.7c0.6-0.3,1.2-0.5,2-0.5c0.8,0,1.4,0.2,1.8,0.6c0.4,0.4,0.6,0.9,0.6,1.6v3.3h-0.8v-0.8
			c-0.4,0.5-1,0.9-2,0.9C765.3,567.3,764.3,566.7,764.3,565.6z M768.3,565.2v-0.5c-0.4-0.1-0.9-0.2-1.6-0.2c-1,0-1.6,0.4-1.6,1.1v0
			c0,0.7,0.6,1.1,1.4,1.1C767.5,566.6,768.3,566,768.3,565.2z"/>
		<path fill="#DAEDF2" d="M771,565.7v-3.3h-0.8v-0.7h0.8v-1.6h0.8v1.6h1.7v0.7h-1.7v3.2c0,0.7,0.4,0.9,0.9,0.9
			c0.3,0,0.5-0.1,0.8-0.2v0.7c-0.3,0.1-0.6,0.2-1,0.2C771.7,567.3,771,566.8,771,565.7z"/>
		<path fill="#DAEDF2" d="M774.5,564.5L774.5,564.5c0-1.6,1.1-2.8,2.6-2.8c1.6,0,2.5,1.3,2.5,2.9c0,0.1,0,0.2,0,0.3h-4.3
			c0.1,1.2,0.9,1.8,1.9,1.8c0.7,0,1.3-0.3,1.7-0.8l0.5,0.5c-0.5,0.6-1.2,1-2.2,1C775.7,567.3,774.5,566.2,774.5,564.5z M778.8,564.2
			c-0.1-1-0.6-1.8-1.7-1.8c-0.9,0-1.7,0.8-1.8,1.8H778.8z"/>
		<path fill="#DAEDF2" d="M781,561.7h0.8v1.4c0.4-0.9,1.2-1.6,2.2-1.5v0.9H784c-1.2,0-2.1,0.8-2.1,2.5v2.2H781V561.7z"/>
	</g>
</g>
<g id="palette">
	<rect x="-40" y="1" fill="#166E91" width="35" height="35"/>
	<rect x="-41" y="45" fill="#338CA8" width="35" height="35"/>
	<rect x="-41" y="88" fill="#A9D5E0" width="35" height="35"/>
	<rect x="-41.5" y="131.5" fill="#DAEDF2" width="35" height="35"/>
	<rect x="-42" y="174" fill="#00333F" width="35" height="35"/>
</g>
</svg>
